<?xml version="1.0" encoding="UTF-8" standalone="no"?>
<!-- Created with Inkscape (http://www.inkscape.org/) -->

<svg
   width="10mm"
   height="10mm"
   viewBox="0 0 9.9999999 10"
   version="1.1"
   id="svg5"
   inkscape:version="1.1.2 (0a00cf5339, 2022-02-04)"
   sodipodi:docname="favicon.svg"
   xmlns:inkscape="http://www.inkscape.org/namespaces/inkscape"
   xmlns:sodipodi="http://sodipodi.sourceforge.net/DTD/sodipodi-0.dtd"
   xmlns="http://www.w3.org/2000/svg"
   xmlns:svg="http://www.w3.org/2000/svg">
  <sodipodi:namedview
     id="namedview7"
     pagecolor="#ffffff"
     bordercolor="#666666"
     borderopacity="1.0"
     inkscape:pageshadow="2"
     inkscape:pageopacity="0.0"
     inkscape:pagecheckerboard="0"
     inkscape:document-units="mm"
     showgrid="false"
     inkscape:object-paths="true"
     inkscape:snap-intersection-paths="true"
     inkscape:zoom="5.1241863"
     inkscape:cx="-20.003176"
     inkscape:cy="-18.637105"
     inkscape:window-width="1606"
     inkscape:window-height="986"
     inkscape:window-x="74"
     inkscape:window-y="27"
     inkscape:window-maximized="1"
     inkscape:current-layer="layer1"
     width="9.04667mm" />
  <defs
     id="defs2" />
  <g
     inkscape:label="Layer 1"
     inkscape:groupmode="layer"
     id="layer1"
     transform="translate(-108.82415,-179.09217)">
    <path
       style="fill:#000000;stroke-width:1.41347"
       id="path323"
       d="" />
    <path
       style="fill:#000000;stroke-width:0.352778"
       id="path222"
       d="" />
    <path
       style="fill:#000000;stroke-width:0.352778"
       id="path182"
       d="" />
    <path
       style="fill:#000000;stroke-width:0.352778"
       id="path143"
       d="" />
    <path
       style="fill:#000000;stroke-width:0.352778"
       id="path123"
       d="" />
    <path
       style="fill:#000000;stroke-width:0.352778"
       id="path85"
       d="" />
    <path
       style="fill:#e63c57;fill-opacity:0.988235;stroke-width:0.352778"
       d="m 113.81858,186.24483 c -0.30906,-0.76476 -0.77142,-1.52599 -1.54993,-1.88334 -0.62898,-0.34555 -1.42939,-0.4746 -1.87776,-1.07907 -0.25885,-0.46767 0.18656,-1.02136 0.6744,-1.05691 0.98746,-0.1161 1.94147,0.34797 2.73546,0.89506 0.96212,0.66591 1.68673,1.70233 1.83942,2.87696 0.0627,0.53528 0.10348,1.1968 -0.33223,1.59232 -0.45613,0.31781 -0.91348,-0.17121 -1.1062,-0.55992 -0.14612,-0.25222 -0.26805,-0.51764 -0.38316,-0.7851 z m 2.78964,0.62985 c -0.18151,-0.47533 -0.32355,-0.96825 -0.38721,-1.47259 -0.424,-1.11648 -1.09634,-2.17888 -2.09779,-2.86145 -0.85411,-0.61818 -1.86514,-0.97362 -2.89006,-1.18497 -0.50511,-0.11487 -0.95347,-0.54651 -0.92302,-1.09363 -0.014,-0.52361 0.58896,-0.71079 1.01832,-0.68002 1.23893,0.0534 2.40408,0.59085 3.45271,1.21822 1.10922,0.6715 2.06101,1.61887 2.63996,2.78765 0.49385,0.98166 0.92854,2.05331 0.9063,3.17019 0.005,0.44466 -0.29577,0.97499 -0.79828,0.93009 -0.44507,-0.0325 -0.7756,-0.41934 -0.92093,-0.81349 z"
       id="path499"
       sodipodi:nodetypes="cccccccccccccccccccc" />
    <circle
       style="fill:#e63c57;fill-opacity:0.988235;stroke-width:0.264583"
       id="path3914"
       cx="110.64953"
       cy="187.26054"
       r="1.3679465" />
  </g>
</svg>
