<?xml version="1.0" standalone="no"?>
<!DOCTYPE svg PUBLIC "-//W3C//DTD SVG 20010904//EN"
 "http://www.w3.org/TR/2001/REC-SVG-20010904/DTD/svg10.dtd">
<svg version="1.0" xmlns="http://www.w3.org/2000/svg"
 width="700.000000pt" height="700.000000pt" viewBox="0 0 700.000000 700.000000"
 preserveAspectRatio="xMidYMid meet">
<metadata>
Created by potrace 1.14, written by Peter Selinger 2001-2017
</metadata>
<g transform="translate(0.000000,700.000000) scale(0.100000,-0.100000)"
fill="#000000" stroke="none">
<path d="M1578 6655 c-1 -1 -19 -5 -38 -8 -151 -21 -328 -105 -402 -191 -33
-38 -68 -102 -83 -152 -14 -48 -16 -248 -2 -299 54 -201 167 -352 356 -473 91
-59 194 -96 413 -147 523 -121 886 -245 1283 -440 419 -205 782 -460 1075
-755 148 -149 150 -151 266 -295 220 -272 464 -681 618 -1035 15 -36 34 -78
41 -95 61 -140 76 -195 101 -366 2 -14 8 -48 15 -75 6 -27 13 -60 15 -74 8
-42 74 -290 96 -359 94 -298 153 -441 235 -568 48 -75 185 -210 255 -251 172
-101 368 -117 513 -40 158 83 275 272 310 498 6 40 6 313 0 380 -20 223 -43
362 -100 595 -74 303 -191 632 -326 923 -16 34 -29 65 -29 67 0 17 -234 480
-298 590 -409 704 -1020 1306 -1782 1754 -58 34 -112 66 -120 71 -107 66 -500
267 -671 343 -239 106 -520 210 -694 257 -193 52 -295 76 -402 94 -196 34
-327 47 -480 51 -88 2 -163 2 -165 0z"/>
<path d="M1649 4816 c-2 -2 -36 -6 -76 -10 -342 -29 -605 -374 -508 -665 55
-166 317 -376 655 -525 36 -16 144 -61 240 -101 96 -40 193 -80 215 -90 99
-41 356 -173 420 -214 361 -234 642 -604 875 -1156 51 -120 78 -180 136 -303
24 -51 44 -95 44 -96 0 -11 169 -310 203 -361 57 -84 183 -207 253 -247 85
-48 120 -59 201 -63 166 -9 290 80 387 280 54 111 77 194 95 340 13 99 4 425
-14 525 -2 14 -7 48 -10 75 -28 234 -133 562 -260 814 -98 196 -263 445 -392
591 -12 14 -31 36 -43 50 -30 35 -179 186 -236 240 -386 360 -1040 728 -1501
844 -109 28 -118 29 -253 52 -83 14 -420 30 -431 20z"/>
<path d="M1089 2219 c-378 -78 -668 -367 -748 -746 -26 -121 -22 -315 9 -428
45 -168 129 -314 251 -437 246 -247 599 -340 939 -246 85 23 263 108 290 138
3 3 21 17 40 31 189 142 330 393 358 639 42 360 -125 716 -428 912 -84 55
-233 120 -300 132 -165 30 -284 31 -411 5z"/>
</g>
</svg>
